<svg width="31" height="31" viewBox="0 0 31 31" fill="none" xmlns="http://www.w3.org/2000/svg">
<path d="M24.2 27.1C24.2 24.7926 23.2834 22.5797 21.6518 20.9482C20.0203 19.3166 17.8074 18.4 15.5 18.4M15.5 18.4C13.1926 18.4 10.9797 19.3166 9.34817 20.9482C7.71661 22.5797 6.8 24.7926 6.8 27.1M15.5 18.4C18.7033 18.4 21.3 15.8033 21.3 12.6C21.3 9.39675 18.7033 6.8 15.5 6.8C12.2967 6.8 9.7 9.39675 9.7 12.6C9.7 15.8033 12.2967 18.4 15.5 18.4ZM30 15.5C30 23.5081 23.5081 30 15.5 30C7.49187 30 1 23.5081 1 15.5C1 7.49187 7.49187 1 15.5 1C23.5081 1 30 7.49187 30 15.5Z" stroke="black" stroke-width="2" stroke-linecap="round" stroke-linejoin="round"/>
</svg>
