<svg width="270" height="270" viewBox="0 0 270 270" fill="none" xmlns="http://www.w3.org/2000/svg">
<path fill-rule="evenodd" clip-rule="evenodd" d="M230.389 107.149L265.081 112.82C267.923 113.282 270.005 115.735 270 118.613V150.895C270 153.741 267.956 156.183 265.145 156.676L230.406 162.775C228.393 169.735 225.629 176.44 222.148 182.778L242.681 211.287C244.365 213.622 244.102 216.834 242.07 218.87L219.247 241.709C217.228 243.722 214.058 244.009 211.722 242.36L182.928 222.163C176.578 225.696 169.833 228.515 162.795 230.585L156.661 265.157C156.168 267.958 153.731 270 150.884 270H118.599C115.729 270 113.28 267.928 112.818 265.105L107.087 230.703C100.061 228.673 93.2813 225.872 86.8654 222.345L58.2781 242.365C55.9477 244.004 52.772 243.722 50.7585 241.709L27.9357 218.87C25.9105 216.834 25.6463 213.634 27.3135 211.304L47.5124 183.055C43.9492 176.609 41.1198 169.806 39.0712 162.746L4.84279 156.676C2.04272 156.178 0 153.741 0 150.895V118.613C0 115.747 2.07799 113.294 4.90742 112.825L39.1358 107.126C41.1963 100.047 44.0255 93.244 47.577 86.8168L27.6245 58.2731C25.9868 55.9428 26.2686 52.7732 28.282 50.76L51.099 27.945C53.136 25.92 56.3233 25.65 58.6656 27.3228L87.018 47.5728C93.3871 44.0863 100.149 41.31 107.193 39.285L112.806 4.92463C113.268 2.08373 115.722 0 118.599 0H150.884C153.738 0 156.173 2.05436 156.666 4.86L162.719 39.4082C169.722 41.445 176.472 44.2506 182.864 47.7841L211.294 27.3522C213.629 25.6676 216.835 25.9318 218.872 27.9626L241.701 50.7775C243.714 52.7968 243.996 55.9722 242.357 58.3024L222.105 87.1631C225.582 93.4963 228.358 100.188 230.389 107.149ZM93.9095 135C93.9095 157.692 112.306 176.087 135 176.087C157.694 176.087 176.091 157.692 176.091 135C176.091 112.308 157.694 93.9131 135 93.9131C112.306 93.9131 93.9095 112.308 93.9095 135Z" fill="#1E47DA"/>
</svg>
