<svg width="313" height="309" viewBox="0 0 313 309" fill="none" xmlns="http://www.w3.org/2000/svg">
<path d="M156.5 290.1C160.114 290.1 163.45 289.682 167.202 289.404L175.264 304.718C176.792 307.78 179.85 309.451 183.603 308.894C187.078 308.198 189.58 305.692 189.996 301.933L192.498 285.088C199.309 283.278 206.119 280.633 212.79 277.71L225.299 288.986C227.94 291.492 231.276 292.049 234.75 290.1C237.808 288.429 239.059 285.088 238.364 281.468L234.889 264.762C240.588 260.725 246.287 256.131 251.429 250.98L266.995 257.523C270.471 258.915 273.667 258.22 276.309 255.017C278.672 252.511 278.947 248.892 277.003 245.829L267.969 231.351C272.139 225.504 275.475 219.239 278.672 212.557L295.628 213.392C299.24 213.531 302.297 211.582 303.55 208.102C304.66 204.621 303.55 201.28 300.629 199.052L287.427 188.472C289.235 181.789 290.624 174.55 291.179 167.033L307.301 162.021C310.777 160.768 313 158.123 313 154.364C313 150.745 310.777 148.1 307.301 146.847L291.179 141.695C290.624 134.178 289.235 127.217 287.427 120.395L300.629 109.676C303.55 107.588 304.66 104.386 303.55 100.905C302.297 97.4246 299.24 95.4757 295.628 95.6147L278.672 96.3114C275.475 89.6285 272.139 83.3643 267.969 77.517L277.003 63.0386C278.947 60.115 278.672 56.4952 276.309 53.9892C273.667 50.7876 270.471 49.9518 266.995 51.4837L251.429 57.7485C246.287 52.8754 240.588 48.1419 234.889 44.1052L238.364 27.5383C239.059 23.7795 237.808 20.4383 234.75 18.7674C231.276 16.9575 227.94 17.2361 225.299 20.0207L212.79 31.019C206.119 28.0954 199.309 25.7284 192.498 23.7795L189.996 6.93459C189.58 3.31482 187.078 0.669789 183.603 0.112628C179.85 -0.443939 176.792 1.08736 175.264 4.14997L167.202 19.4642C163.45 19.1856 160.114 18.907 156.5 18.907C152.747 18.907 149.412 19.1856 145.52 19.4642L137.598 4.14997C136.069 1.08736 133.011 -0.443939 129.12 0.112628C125.645 0.669789 123.282 3.31482 122.726 6.93459L120.364 23.6405C113.414 25.7284 106.604 28.0954 100.071 31.019L87.5627 20.0207C84.7826 17.2361 81.4469 16.9575 78.1112 18.7674C75.0537 20.4383 73.8024 23.7795 74.4974 27.5383L77.9719 44.1052C72.1348 48.1419 66.4366 52.8754 61.2934 57.7485L45.8661 51.4837C42.391 49.9518 39.0553 50.7876 36.4146 53.9892C34.1914 56.4952 33.9133 60.115 35.7202 62.899L44.893 77.517C40.7235 83.3643 37.3878 89.6285 34.1914 96.3114L17.0954 95.6147C13.4822 95.4757 10.424 97.4246 9.3121 100.905C8.2002 104.386 9.17334 107.588 12.0922 109.676L25.435 120.395C23.6281 127.217 22.0993 134.178 21.6824 141.695L5.55951 146.847C1.94568 147.96 0 150.605 0 154.364C0 158.123 1.94568 160.768 5.55951 162.021L21.6824 167.172C22.0993 174.55 23.6281 181.789 25.435 188.472L12.0922 199.052C9.17334 201.28 8.2002 204.621 9.3121 208.102C10.424 211.582 13.4822 213.531 17.0954 213.392L34.1914 212.557C37.3878 219.239 40.7235 225.504 44.7542 231.351L35.859 245.829C33.7739 248.892 34.0521 252.511 36.4146 255.017C39.0553 258.22 42.391 258.915 45.8661 257.523L61.2934 250.98C66.4366 256.131 72.1348 260.725 77.9719 264.762L74.4974 281.468C73.8024 285.088 75.0537 288.429 78.1112 290.1C81.5857 292.049 84.9214 291.492 87.5627 288.986L99.9324 277.71C106.604 280.633 113.414 283.278 120.364 285.088L122.726 301.933C123.282 305.692 125.645 308.198 129.12 308.894C133.011 309.451 136.069 307.78 137.598 304.718L145.52 289.404C149.273 289.682 152.747 290.1 156.5 290.1ZM191.386 145.593C184.854 128.052 172.067 118.446 156.083 118.446C153.721 118.446 150.941 118.725 146.493 119.699L106.604 51.4837C121.475 44.1052 138.431 40.0679 156.5 40.0679C217.099 40.0679 264.633 86.1483 268.942 145.593H191.386ZM43.6423 154.503C43.6423 115.801 61.8496 81.6934 90.6203 61.0897L130.788 129.723C123.282 137.519 119.808 146.011 119.808 155.06C119.808 163.831 123.144 171.905 130.788 179.98L89.6472 247.36C61.5715 226.617 43.6423 192.927 43.6423 154.503ZM139.405 154.921C139.405 145.454 147.466 138.076 156.361 138.076C165.813 138.076 173.596 145.454 173.596 154.921C173.596 164.248 165.813 171.905 156.361 171.905C147.466 171.905 139.405 164.248 139.405 154.921ZM156.5 268.939C138.015 268.939 120.78 264.623 105.631 257.106L146.493 190.143C150.802 191.256 153.721 191.535 156.083 191.535C172.206 191.535 184.993 181.65 191.386 163.692H268.942C264.493 222.858 216.96 268.939 156.5 268.939Z" fill="#1E47DA"/>
</svg>
