<svg width="228" height="228" viewBox="0 0 228 228" fill="none" xmlns="http://www.w3.org/2000/svg">
<path d="M149.333 114C149.333 133.515 133.515 149.333 114 149.333C94.4854 149.333 78.6667 133.515 78.6667 114C78.6667 94.4854 94.4854 78.6667 114 78.6667C133.515 78.6667 149.333 94.4854 149.333 114Z" stroke="#1E47DA" stroke-width="16" stroke-linecap="round" stroke-linejoin="round"/>
<path d="M124.654 8.70726C122.23 8 119.487 8 114 8C108.513 8 105.77 8 103.346 8.70726C99.7984 9.7424 96.6643 11.8641 94.3853 14.7735C92.8283 16.7613 91.8095 19.3086 89.7721 24.4031C86.8427 31.7266 78.713 35.4977 71.2298 33.0042L64.5073 30.7642C59.7386 29.1747 57.3542 28.3798 55.0164 28.2436C51.5824 28.0435 48.1646 28.8504 45.1826 30.565C43.1525 31.7323 41.3754 33.5096 37.821 37.064C34.0433 40.8417 32.1543 42.7305 30.9544 44.8867C29.1914 48.0543 28.4456 51.6878 28.8183 55.2938C29.0719 57.7482 30.0639 60.2284 32.0481 65.1889C35.1554 72.9572 32.1661 81.8323 24.992 86.1377L21.7236 88.0991C16.7192 91.1016 14.217 92.6033 12.3995 94.6703C10.7911 96.4994 9.57834 98.6418 8.83728 100.962C8 103.584 8 106.531 8 112.425C8 119.405 8 122.893 9.11441 125.881C10.0992 128.521 11.7008 130.886 13.7857 132.781C16.1453 134.924 19.3532 136.208 25.7687 138.775C32.3251 141.396 35.7009 148.675 33.4678 155.374L30.9338 162.977C29.1787 168.241 28.301 170.875 28.2213 173.461C28.1253 176.572 28.8524 179.652 30.3291 182.39C31.5573 184.669 33.5199 186.631 37.4444 190.556C41.3692 194.48 43.3316 196.442 45.6094 197.671C48.3483 199.147 51.4286 199.875 54.5387 199.779C57.1253 199.699 59.7582 198.821 65.0238 197.066L71.2304 194.997C78.713 192.504 86.8428 196.274 89.7721 203.597C91.8095 208.691 92.8283 211.239 94.3853 213.227C96.6643 216.136 99.7984 218.258 103.346 219.293C105.77 220 108.513 220 114 220C119.487 220 122.23 220 124.654 219.293C128.202 218.258 131.336 216.136 133.615 213.227C135.172 211.239 136.191 208.691 138.228 203.597C141.157 196.274 149.287 192.504 156.769 194.999L162.971 197.067C168.237 198.822 170.87 199.7 173.457 199.78C176.567 199.875 179.647 199.149 182.385 197.672C184.663 196.443 186.626 194.481 190.551 190.557C194.475 186.632 196.437 184.669 197.666 182.391C199.143 179.653 199.869 176.572 199.774 173.462C199.694 170.876 198.816 168.243 197.062 162.977L194.529 155.38C192.295 148.678 195.672 141.397 202.231 138.775C208.646 136.208 211.854 134.924 214.215 132.781C216.299 130.886 217.901 128.521 218.886 125.881C220 122.893 220 119.405 220 112.425C220 106.531 220 103.584 219.163 100.962C218.422 98.6418 217.209 96.4994 215.601 94.6703C213.782 92.6033 211.281 91.1016 206.277 88.0991L203.003 86.1357C195.83 81.831 192.839 72.9561 195.947 65.1879C197.931 60.2277 198.924 57.7473 199.177 55.2928C199.549 51.6868 198.804 48.0535 197.04 44.8858C195.84 42.7297 193.952 40.8408 190.174 37.0631C186.619 33.5088 184.842 31.7315 182.813 30.5642C179.831 28.8495 176.413 28.0427 172.978 28.2427C170.641 28.379 168.257 29.1737 163.488 30.7633L156.77 33.0027C149.287 35.4969 141.157 31.7263 138.228 24.4031C136.191 19.3086 135.172 16.7613 133.615 14.7735C131.336 11.8641 128.202 9.7424 124.654 8.70726Z" stroke="#1E47DA" stroke-width="16" stroke-linecap="round" stroke-linejoin="round"/>
</svg>
