<svg width="285" height="285" viewBox="0 0 285 285" fill="none" xmlns="http://www.w3.org/2000/svg">
<path d="M278.755 124.824L248.818 117.763C246.074 105.927 241.421 94.8286 235.175 84.8141L251.347 58.6564C253.324 55.4485 252.842 51.3177 250.18 48.6564L236.342 34.8184C233.686 32.1621 229.55 31.6789 226.347 33.6561L200.19 49.8287C190.175 43.5838 179.082 38.9252 167.246 36.1816L160.18 6.2455C159.316 2.58782 156.045 0 152.29 0H132.715C128.955 0 125.689 2.58782 124.824 6.24494L117.759 36.1816C105.923 38.9258 94.8286 43.5793 84.8196 49.8242L58.657 33.6522C55.4591 31.6795 51.3133 32.1632 48.662 34.8145L34.8195 48.657C32.1582 51.3177 31.6795 55.4541 33.6572 58.652L49.8242 84.8141C43.5788 94.8291 38.9252 105.922 36.1816 117.758L6.24995 124.819C2.59227 125.688 0 128.96 0 132.71V152.284C0 156.049 2.58782 159.311 6.24995 160.175L36.1816 167.241C38.9258 179.077 43.5843 190.171 49.8293 200.185L33.6572 226.342C31.6845 229.541 32.1632 233.691 34.815 236.342L48.6575 250.181C51.3188 252.846 55.4541 253.32 58.6576 251.342L84.8202 235.175C94.8297 241.421 105.924 246.074 117.759 248.817L124.824 278.754C125.689 282.417 128.955 284.999 132.715 284.999H152.29C156.045 284.999 159.316 282.417 160.18 278.754L167.246 248.817C179.077 246.073 190.175 241.421 200.185 235.175L226.347 251.347C229.55 253.324 233.686 252.841 236.342 250.181L250.186 236.342C252.842 233.686 253.325 229.546 251.348 226.347L235.176 200.185C241.421 190.175 246.074 179.077 248.818 167.246L278.755 160.18C282.422 159.311 285 156.045 285 152.285V132.714C284.999 128.954 282.417 125.688 278.755 124.824ZM142.5 217.431C101.122 217.431 67.5727 183.881 67.5727 142.5C67.5727 101.118 101.122 67.5677 142.5 67.5677C183.891 67.5677 217.436 101.117 217.436 142.5C217.436 183.881 183.891 217.431 142.5 217.431Z" fill="#3255D5"/>
<path d="M142.5 95.0094C116.274 95.0094 95.0096 116.27 95.0096 142.5C95.0096 168.73 116.274 189.989 142.5 189.989C168.73 189.989 189.99 168.73 189.99 142.5C189.99 116.269 168.73 95.0094 142.5 95.0094ZM142.5 165.8C129.634 165.8 119.199 155.365 119.199 142.5C119.199 129.633 129.634 119.199 142.5 119.199C155.366 119.199 165.8 129.633 165.8 142.5C165.8 155.366 155.366 165.8 142.5 165.8Z" fill="#3255D5"/>
</svg>
